<?xml version="1.0" standalone="no"?>
<!DOCTYPE svg PUBLIC "-//W3C//DTD SVG 20010904//EN"
 "http://www.w3.org/TR/2001/REC-SVG-20010904/DTD/svg10.dtd">
<svg version="1.0" xmlns="http://www.w3.org/2000/svg"
 width="256.000000pt" height="256.000000pt" viewBox="0 0 256.000000 256.000000"
 preserveAspectRatio="xMidYMid meet">

<g transform="translate(0.000000,256.000000) scale(0.100000,-0.100000)"
fill="#ffffff" stroke="none">
<path d="M1382 2468 c-7 -7 -12 -34 -12 -61 0 -44 -2 -49 -20 -44 -11 3 -20 2
-20 -2 0 -16 37 -41 60 -41 22 0 22 1 7 18 -23 26 -24 117 -1 126 10 4 25 -1
35 -10 11 -10 19 -12 19 -6 0 11 -31 32 -47 32 -5 0 -14 -5 -21 -12z"/>
<path d="M1160 2460 c0 -5 6 -7 13 -4 8 3 18 -6 25 -20 12 -27 42 -27 42 0 0
7 -6 11 -13 8 -8 -3 -20 2 -27 11 -14 17 -40 20 -40 5z"/>
<path d="M1253 2454 c3 -11 9 -30 13 -44 7 -28 21 -40 44 -40 9 1 5 8 -12 21
-17 12 -28 30 -28 44 0 13 -5 27 -11 31 -7 4 -9 0 -6 -12z"/>
<path d="M1145 2428 c-5 -5 -19 -15 -30 -22 -18 -13 -18 -14 9 -9 15 3 30 12
33 20 7 18 1 23 -12 11z"/>
<path d="M1448 2424 c-4 -3 0 -20 7 -38 8 -18 17 -84 20 -146 l6 -114 -21 27
c-14 18 -31 27 -50 27 l-28 0 1 -75 c2 -68 4 -77 30 -101 17 -15 32 -23 38
-17 4 4 15 35 23 68 l14 60 1 -62 c1 -55 -1 -62 -21 -70 -13 -4 -30 -8 -39 -8
-29 0 -138 -92 -145 -122 -8 -33 -32 -63 -51 -63 -10 0 -12 13 -8 58 4 44 3
49 -4 24 -5 -18 -16 -41 -25 -50 -14 -17 -14 -20 0 -41 9 -12 13 -29 10 -38
-4 -8 -2 -21 3 -27 15 -19 19 -115 6 -126 -7 -6 -11 -19 -8 -28 5 -23 -31 -56
-52 -48 -14 5 -15 15 -9 58 4 29 6 64 4 78 -3 27 -3 54 0 85 1 11 -2 39 -6 62
-5 33 -2 49 14 78 17 28 18 35 7 35 -24 0 -18 19 26 86 43 67 113 137 154 156
20 9 23 16 19 37 -4 14 -12 31 -19 36 -8 7 -11 22 -8 39 5 25 3 27 -15 22 -14
-5 -24 -1 -31 11 -14 27 -124 59 -155 45 -25 -11 -37 -5 -49 28 -5 13 -5 13
-6 0 -1 -33 16 -42 83 -44 65 -1 66 -2 116 -51 30 -30 52 -62 56 -81 6 -30 3
-34 -39 -58 -24 -15 -68 -51 -96 -81 -29 -30 -57 -55 -64 -55 -6 0 -29 12 -50
27 -36 25 -46 27 -129 25 -106 -3 -197 -25 -218 -51 -8 -11 -27 -23 -42 -26
-30 -8 -38 -25 -13 -25 10 0 15 -10 15 -30 0 -25 4 -30 23 -29 12 0 31 4 42 9
18 8 17 9 -7 9 -57 2 -26 46 52 74 62 23 73 22 66 -7 -10 -41 7 -37 26 5 l18
42 70 -6 c62 -5 72 -9 99 -39 18 -19 31 -44 31 -60 0 -28 -13 -37 -25 -18 -3
6 -16 10 -28 9 l-22 0 23 -11 c12 -6 25 -23 28 -37 3 -14 12 -54 21 -89 13
-50 14 -74 6 -120 -7 -34 -7 -61 -2 -67 13 -13 11 -172 -2 -181 -6 -3 -9 -17
-6 -30 2 -13 0 -24 -4 -24 -5 0 -9 5 -9 10 0 17 -18 11 -22 -7 -2 -10 9 -28
24 -41 27 -23 28 -28 28 -108 l0 -85 -30 -10 c-20 -7 -30 -18 -30 -31 0 -10
-5 -29 -11 -40 -10 -19 -9 -20 7 -13 58 24 62 21 60 -40 -1 -53 -3 -58 -31
-70 l-30 -13 27 -1 c21 -1 28 -7 33 -32 8 -33 -4 -49 -38 -49 -10 0 -22 -11
-27 -25 -5 -14 -24 -32 -41 -39 l-31 -13 38 -6 c63 -11 71 -9 70 15 -1 14 6
24 17 26 15 3 17 -5 17 -62 0 -36 -4 -67 -9 -71 -6 -3 -25 4 -43 15 -18 11
-41 20 -51 20 -30 0 -87 60 -87 91 0 15 -6 32 -14 38 -8 7 -22 27 -31 46 -9
19 -20 35 -25 35 -20 0 -9 21 16 31 35 13 56 5 97 -38 23 -23 41 -34 51 -30
14 5 12 12 -9 44 -42 64 -44 65 -91 58 -38 -5 -44 -4 -44 12 0 35 29 63 64 63
33 0 46 13 46 47 0 12 -2 12 -14 1 -7 -8 -32 -22 -56 -33 l-42 -19 -19 25
c-24 31 -27 114 -4 105 18 -7 18 -7 -1 39 -8 20 -23 39 -34 42 -29 8 -38 103
-9 103 4 0 19 -5 32 -11 32 -15 81 -123 67 -149 -11 -21 3 -70 19 -70 17 0 0
142 -21 177 -23 39 -17 66 20 83 27 12 27 12 5 21 -29 10 -29 12 2 45 19 21
28 24 39 15 10 -9 16 -8 26 4 7 8 24 15 38 15 l26 0 -21 21 c-20 20 -23 21
-38 5 -31 -30 -50 -19 -85 49 -18 36 -34 65 -35 65 -1 0 0 -11 3 -25 3 -20 0
-25 -17 -25 -11 0 -21 -4 -21 -8 0 -4 12 -8 28 -7 26 0 27 -3 30 -51 5 -84 -6
-100 -80 -112 -119 -21 -147 -22 -196 -11 -45 11 -53 10 -85 -10 -19 -11 -39
-21 -46 -21 -21 0 -11 20 14 30 28 10 34 40 9 40 -9 0 -24 10 -34 22 -15 19
-21 21 -43 11 -19 -9 -29 -8 -46 3 -26 18 -28 3 -3 -19 21 -20 62 -23 62 -5 0
9 3 9 11 1 7 -7 3 -25 -15 -61 -25 -50 -45 -132 -32 -132 7 0 56 50 56 57 0 2
-9 1 -20 -2 -24 -8 -26 7 -5 25 12 10 21 10 41 1 14 -6 36 -8 50 -5 19 5 25 3
23 -7 -2 -12 16 -61 28 -78 2 -3 16 7 31 21 25 23 32 25 91 19 79 -9 104 -32
99 -95 l-3 -41 -48 0 c-36 0 -51 -5 -58 -18 -6 -9 -20 -17 -32 -17 -28 0 -92
52 -112 90 -24 46 -115 50 -115 4 0 -11 4 -12 19 -4 38 20 69 12 87 -22 13
-24 14 -36 5 -50 -17 -27 -15 -28 46 -28 37 0 62 -5 74 -16 15 -14 19 -13 42
10 30 30 53 33 86 10 68 -48 53 -182 -21 -184 -10 0 -35 16 -56 35 -54 48 -85
58 -125 41 -18 -7 -41 -25 -50 -40 -17 -26 -18 -26 -54 -11 -40 17 -46 16 -37
-9 6 -14 52 -46 68 -46 3 0 12 16 20 35 9 21 22 35 33 36 55 3 110 -4 123 -16
8 -7 45 -25 81 -40 69 -29 91 -54 104 -123 5 -24 3 -33 -10 -38 -9 -4 -14 -12
-11 -19 3 -8 -2 -16 -10 -19 -25 -9 -34 -7 -34 9 0 8 -15 22 -32 31 -18 9 -45
31 -60 48 -21 23 -27 27 -28 14 0 -10 14 -33 31 -52 l30 -35 -26 -17 c-34 -22
-28 -26 20 -13 80 22 115 -30 49 -75 -19 -13 -31 -26 -26 -29 15 -10 80 41 84
65 2 15 11 24 26 26 12 2 20 8 17 13 -4 5 3 9 14 9 12 0 21 -6 21 -14 0 -22
17 -28 40 -16 16 8 30 6 67 -10 l46 -20 -6 -49 c-4 -33 -2 -51 6 -54 10 -3 12
-87 7 -260 -1 -20 -10 -33 -33 -47 -18 -11 -40 -20 -49 -20 -10 0 -18 -4 -18
-10 0 -5 -15 -10 -32 -11 l-33 -1 29 -8 c37 -12 98 12 130 51 30 36 38 36 82
3 19 -15 34 -22 34 -18 0 5 -18 22 -39 38 -22 16 -42 38 -45 50 -7 31 9 104
28 125 18 20 21 47 6 56 -13 8 -13 52 0 60 6 3 10 2 10 -4 0 -6 23 6 51 27 32
24 52 47 56 64 3 15 21 46 41 69 l36 41 -33 -16 c-34 -18 -71 -69 -71 -98 0
-10 -14 -25 -31 -34 -17 -8 -28 -11 -25 -5 4 6 -1 11 -12 11 -10 0 -27 9 -38
21 -18 20 -19 44 -22 411 -3 417 -4 410 47 430 44 16 69 2 82 -45 18 -69 47
-117 69 -117 12 0 25 -10 32 -25 12 -28 40 -40 80 -36 22 2 30 -3 38 -23 8
-23 15 -26 59 -26 27 0 53 5 56 10 4 6 11 8 16 5 20 -13 5 -64 -44 -160 -48
-93 -56 -102 -102 -125 -43 -21 -47 -25 -27 -28 14 -2 33 5 45 15 12 11 33 26
47 35 25 15 27 15 58 -18 18 -18 32 -44 32 -57 0 -13 5 -38 11 -55 8 -24 7
-37 -5 -61 -18 -34 -19 -41 -8 -41 8 0 20 31 37 97 3 12 1 24 -5 28 -5 3 -10
20 -10 36 0 17 -12 51 -27 76 l-27 46 21 39 c24 43 21 49 -9 16 l-20 -23 18
30 c47 79 52 108 29 185 -7 24 -7 24 10 8 20 -19 23 -104 5 -139 -9 -17 -3
-27 45 -73 30 -30 55 -50 55 -45 0 16 40 9 59 -10 12 -12 23 -16 34 -10 11 7
20 0 37 -28 19 -33 20 -43 11 -94 -13 -74 -81 -209 -141 -279 -26 -30 -70 -89
-98 -130 -71 -104 -88 -124 -100 -117 -5 4 -22 -9 -37 -29 -27 -35 -123 -88
-190 -104 l-30 -7 38 -8 c109 -22 209 59 373 300 37 55 76 111 86 125 44 57
97 149 112 193 9 26 16 79 16 116 0 57 5 79 30 126 17 31 30 69 30 84 0 14 12
49 25 76 14 28 25 57 24 65 0 8 -5 3 -11 -12 -12 -36 -20 -35 -42 2 -13 24
-15 34 -6 45 15 18 3 62 -19 68 -15 4 -17 -1 -10 -37 3 -23 12 -56 19 -74 19
-50 7 -143 -24 -196 -29 -50 -45 -59 -93 -50 -39 7 -55 32 -30 46 10 5 17 18
17 29 0 17 -5 18 -40 13 -41 -7 -50 2 -28 24 9 9 10 15 2 20 -6 4 -15 16 -21
26 -8 15 -10 6 -9 -40 1 -32 5 -65 10 -72 7 -12 1 -32 -7 -21 -2 2 -16 22 -32
43 -32 44 -37 92 -13 129 8 12 18 35 22 50 3 15 10 25 15 23 5 -3 11 3 14 14
6 24 -12 26 -53 5 -27 -14 -30 -14 -30 1 0 9 20 44 44 78 24 33 51 77 61 96
32 62 78 85 203 101 73 9 101 9 137 -1 38 -11 48 -10 67 2 31 20 75 30 82 19
11 -17 -6 -41 -32 -48 -24 -6 -22 -7 21 -20 55 -16 66 -33 43 -68 l-17 -25
-46 35 c-25 19 -55 35 -67 35 -17 0 -16 -3 12 -20 41 -25 71 -84 56 -108 -16
-24 -38 -21 -42 6 -4 26 -17 29 -26 6 -8 -22 22 -45 54 -41 20 1 27 10 34 39
6 25 16 38 32 42 13 4 26 19 33 38 11 30 10 35 -14 55 -35 31 -35 90 0 123 29
27 34 80 9 104 -9 10 -33 16 -59 16 -44 0 -44 1 -39 29 9 42 -21 49 -58 14
-27 -26 -35 -28 -100 -26 -38 1 -76 7 -85 14 -10 9 -17 10 -21 2 -4 -6 -29
-14 -57 -19 -62 -9 -118 -31 -110 -44 10 -16 38 -12 91 12 54 24 119 26 200 7
27 -6 79 -11 115 -10 l65 0 -4 -31 c-3 -22 0 -35 14 -45 12 -9 15 -16 8 -23
-19 -19 -198 -44 -319 -44 -109 -1 -123 -3 -153 -24 -36 -26 -52 -52 -77 -132
-9 -30 -26 -63 -38 -73 -20 -18 -21 -18 -29 3 -12 33 -25 15 -33 -43 -9 -76
-14 -87 -36 -87 -15 0 -19 7 -19 39 0 25 5 41 15 45 8 3 15 15 15 26 0 11 -7
20 -15 20 -8 0 -15 9 -15 20 0 18 4 20 40 14 24 -4 40 -3 40 3 0 6 -18 13 -40
17 -31 5 -40 11 -40 26 0 28 -18 34 -22 8 -3 -20 -10 -24 -55 -28 -42 -4 -60
-12 -87 -37 -28 -27 -40 -32 -64 -27 -30 6 -42 31 -42 89 0 23 -22 35 -67 35
-30 0 -30 16 -1 24 17 4 20 8 12 16 -8 8 -9 24 -2 53 5 23 11 74 12 112 2 39
10 83 18 100 37 70 114 145 150 145 6 0 19 7 28 15 19 17 85 23 115 10 19 -9
20 -8 2 18 -9 14 -17 31 -17 37 0 15 26 12 40 -5 7 -8 17 -15 24 -15 6 0 -3
14 -20 31 l-31 31 13 56 c7 31 11 58 9 60 -4 4 -25 -66 -25 -83 0 -6 -7 -21
-16 -34 -25 -35 -34 -10 -34 94 0 92 -25 274 -39 288 -4 4 -10 5 -13 1z m57
-1044 c3 -5 -2 -21 -11 -35 -13 -20 -14 -29 -5 -38 26 -26 -2 -38 -39 -15 -25
16 -35 5 -20 -21 24 -47 -18 -56 -50 -11 l-21 30 50 50 c47 47 82 62 96 40z
m75 -417 c-11 -17 -11 -17 -6 0 3 10 6 24 7 30 0 9 2 9 5 0 3 -7 0 -20 -6 -30z"/>
<path d="M1648 2273 c-17 -4 -68 -75 -68 -95 0 -7 8 1 19 17 27 45 66 68 91
55 11 -6 20 -18 20 -26 0 -25 -32 -73 -53 -80 -13 -4 -15 -9 -7 -19 7 -9 7
-25 -1 -57 -15 -55 -7 -78 25 -78 20 0 23 4 19 21 -5 19 -3 21 20 17 27 -5 40
16 15 24 -37 13 104 138 154 138 9 0 18 7 22 15 5 13 2 14 -17 4 -12 -6 -38
-18 -57 -27 -19 -9 -63 -43 -97 -76 -34 -33 -65 -58 -67 -55 -7 6 19 80 45
131 11 22 18 46 15 53 -7 18 -57 42 -78 38z"/>
<path d="M1921 2246 c-10 -12 -9 -14 8 -9 15 4 22 -1 27 -21 3 -14 10 -24 14
-21 13 8 -5 60 -22 63 -8 2 -20 -4 -27 -12z"/>
<path d="M2015 2231 c-3 -6 1 -11 10 -11 11 0 14 -6 9 -24 -4 -19 3 -33 35
-65 46 -46 55 -40 15 9 -16 18 -27 45 -28 63 -1 32 -27 50 -41 28z"/>
<path d="M1827 2082 c-31 -31 -39 -48 -44 -90 -4 -41 -3 -52 8 -52 17 -1 69
-45 69 -58 0 -5 9 -12 19 -15 11 -3 29 -20 40 -38 12 -19 21 -29 21 -24 0 19
-39 74 -84 120 -64 65 -69 75 -46 113 26 42 76 72 120 72 29 0 44 -8 80 -45
51 -52 83 -62 48 -14 -36 48 -78 69 -139 69 -49 -1 -58 -4 -92 -38z"/>
<path d="M2096 2043 c-6 -14 -5 -15 5 -6 7 7 10 15 7 18 -3 3 -9 -2 -12 -12z"/>
<path d="M639 1933 c-13 -16 -12 -17 4 -4 9 7 17 15 17 17 0 8 -8 3 -21 -13z"/>
<path d="M877 1910 c-18 -18 -18 -19 2 -30 12 -6 21 -17 21 -25 0 -16 10 -17
50 -6 25 7 25 7 -7 19 -22 7 -33 17 -33 31 0 28 -12 32 -33 11z"/>
<path d="M1630 1920 c0 -5 5 -10 11 -10 5 0 7 5 4 10 -3 6 -8 10 -11 10 -2 0
-4 -4 -4 -10z"/>
<path d="M600 1892 c0 -5 -11 -14 -25 -20 -14 -6 -25 -16 -25 -22 0 -6 5 -8
10 -5 24 15 27 -9 5 -41 -14 -20 -22 -41 -18 -48 5 -7 9 -4 11 9 2 11 16 35
31 54 58 75 66 87 48 72 -11 -9 -17 -10 -17 -2 0 6 -4 11 -10 11 -5 0 -10 -4
-10 -8z"/>
<path d="M990 1860 c0 -11 63 -71 69 -65 1 2 -9 20 -24 39 -27 35 -45 46 -45
26z"/>
<path d="M794 1829 c-3 -6 -20 -19 -38 -30 l-31 -19 41 0 c28 0 47 -6 59 -20
27 -30 47 -26 35 6 -12 30 -42 73 -52 74 -4 0 -10 -5 -14 -11z"/>
<path d="M492 1800 c-6 -11 -12 -29 -12 -39 0 -11 -9 -27 -21 -35 -50 -35
-118 -143 -133 -211 l-7 -30 21 25 c11 14 20 32 20 41 0 50 68 149 100 149 21
0 36 -33 23 -52 -10 -17 -10 -88 0 -88 4 0 7 18 7 40 0 29 5 42 20 50 19 10
19 11 0 30 -24 24 -26 73 -6 113 17 31 7 37 -12 7z"/>
<path d="M1661 1812 c-1 -7 -9 -12 -19 -10 -9 1 -31 -7 -49 -20 -17 -12 -36
-22 -41 -22 -6 0 -12 -6 -15 -12 -3 -10 -9 -10 -26 0 -23 13 -29 4 -9 -16 9
-9 8 -16 -5 -30 -9 -10 -17 -23 -17 -29 0 -6 -7 -13 -15 -17 -11 -4 -14 -13
-9 -31 4 -15 2 -25 -5 -25 -6 0 -11 -4 -11 -10 0 -5 7 -10 15 -10 28 0 15 -20
-16 -27 -22 -4 -27 -8 -17 -14 11 -7 10 -11 -2 -19 -8 -5 -20 -10 -26 -10 -6
0 -18 -8 -25 -17 -12 -15 -12 -16 6 -9 20 7 76 21 126 31 30 5 59 55 59 99 0
21 -5 26 -25 26 -30 0 -32 18 -5 53 11 14 20 32 20 40 0 15 20 27 46 27 8 0
19 -11 24 -25 9 -24 30 -35 30 -15 0 6 17 10 38 10 81 0 142 34 142 79 0 9
-15 1 -39 -23 l-38 -37 -30 25 c-17 14 -35 26 -41 26 -6 0 -13 6 -15 13 -4 9
-6 9 -6 -1z"/>
<path d="M906 1731 c-3 -5 3 -11 14 -14 14 -3 18 -10 14 -22 -5 -11 0 -18 14
-22 12 -3 22 -14 24 -26 3 -18 7 -14 31 21 25 39 26 57 0 31 -7 -7 -15 -2 -27
15 -16 26 -59 36 -70 17z"/>
<path d="M388 1594 c-5 -4 -8 -35 -7 -68 l1 -61 9 45 c10 50 8 96 -3 84z"/>
<path d="M995 1590 c-3 -5 2 -24 10 -41 15 -28 18 -30 32 -16 9 8 13 22 10 31
-8 20 -44 39 -52 26z"/>
<path d="M745 1540 c-3 -5 3 -10 14 -10 11 0 23 5 26 10 3 6 -3 10 -14 10 -11
0 -23 -4 -26 -10z"/>
<path d="M2078 1503 c17 -2 47 -2 65 0 17 2 3 4 -33 4 -36 0 -50 -2 -32 -4z"/>
<path d="M303 1410 c-20 -122 -24 -192 -14 -245 l9 -50 1 56 c1 61 21 93 43
71 7 -7 16 -12 21 -12 13 0 -3 62 -20 82 -13 15 -14 22 -3 48 11 26 10 33 -3
48 -8 9 -17 31 -19 47 -2 21 -7 6 -15 -45z"/>
<path d="M1960 1465 c-7 -9 -11 -18 -8 -20 3 -3 11 1 18 10 7 9 11 18 8 20 -3
3 -11 -1 -18 -10z"/>
<path d="M546 1461 c-3 -5 1 -14 9 -21 8 -7 12 -16 9 -21 -3 -5 -1 -9 5 -9 5
0 16 -3 25 -6 23 -9 20 18 -4 44 -22 23 -35 27 -44 13z"/>
<path d="M1076 1445 c4 -8 8 -15 10 -15 2 0 4 7 4 15 0 8 -4 15 -10 15 -5 0
-7 -7 -4 -15z"/>
<path d="M2048 1408 c-19 -15 -31 -88 -21 -126 6 -24 9 -19 23 38 14 59 19 65
44 68 22 3 25 6 15 18 -14 17 -40 18 -61 2z"/>
<path d="M1852 1340 c-12 -20 -9 -40 6 -40 4 0 13 14 19 30 13 36 -4 43 -25
10z"/>
<path d="M1014 1272 c4 -10 0 -39 -9 -63 -13 -41 -13 -42 2 -21 20 28 51 28
62 0 l8 -23 7 23 c9 26 1 42 -20 42 -8 0 -20 14 -25 30 -12 32 -34 43 -25 12z"/>
<path d="M1275 1230 l-20 -9 20 0 c11 0 27 4 35 9 13 9 13 10 0 9 -8 0 -24 -4
-35 -9z"/>
<path d="M300 1055 c0 -22 9 -77 20 -123 11 -46 20 -104 20 -130 0 -26 5 -54
10 -62 16 -24 12 66 -6 145 -9 39 -17 96 -18 127 -2 68 -26 107 -26 43z"/>
<path d="M1875 1039 c-4 -6 -5 -12 -2 -15 2 -3 7 2 10 11 7 17 1 20 -8 4z"/>
<path d="M720 1010 c0 -5 5 -10 11 -10 5 0 7 5 4 10 -3 6 -8 10 -11 10 -2 0
-4 -4 -4 -10z"/>
<path d="M412 858 c-7 -7 -12 -28 -11 -47 l1 -36 9 32 c5 18 14 35 19 38 12 7
13 25 2 25 -4 0 -13 -5 -20 -12z"/>
<path d="M1390 859 c0 -5 5 -7 10 -4 6 3 10 8 10 11 0 2 -4 4 -10 4 -5 0 -10
-5 -10 -11z"/>
<path d="M462 800 c14 -44 28 -61 28 -33 0 11 -9 31 -20 44 l-20 24 12 -35z"/>
<path d="M434 716 c-3 -8 -4 -24 -2 -37 3 -19 4 -18 15 10 6 18 7 33 2 37 -5
3 -12 -1 -15 -10z"/>
<path d="M360 711 c0 -17 35 -77 66 -111 12 -14 24 -34 27 -45 3 -11 5 0 6 25
1 50 -11 76 -28 65 -16 -9 -41 13 -57 50 -7 16 -13 24 -14 16z"/>
<path d="M460 527 c0 -21 33 -68 62 -88 l32 -23 -19 26 c-11 15 -23 28 -28 28
-4 0 -16 15 -27 33 -11 17 -20 28 -20 24z"/>
<path d="M730 522 c0 -12 -46 -32 -72 -32 -30 0 -19 -7 21 -13 19 -3 38 -12
42 -19 6 -9 9 -4 9 15 0 15 7 30 15 33 8 4 15 10 15 15 0 5 -7 9 -15 9 -8 0
-15 -4 -15 -8z"/>
<path d="M570 438 c0 -5 12 -13 26 -18 14 -6 34 -20 45 -33 15 -18 18 -19 19
-5 0 9 -4 20 -10 23 -5 3 -10 14 -10 23 0 13 -9 17 -35 18 -19 0 -35 -3 -35
-8z"/>
<path d="M756 431 c-8 -12 19 -21 62 -21 l37 1 -40 14 c-47 17 -52 18 -59 6z"/>
<path d="M560 401 c0 -7 15 -26 33 -42 71 -65 137 -122 137 -117 0 2 -38 41
-85 87 -47 46 -85 78 -85 72z"/>
<path d="M897 391 c6 -22 29 -35 38 -21 9 15 -6 40 -25 40 -13 0 -17 -6 -13
-19z"/>
<path d="M990 395 c0 -4 16 -21 35 -40 32 -29 34 -36 25 -59 -7 -19 -7 -25 1
-21 18 12 30 56 19 70 -6 8 -10 22 -8 32 2 14 -5 19 -34 21 -21 2 -38 0 -38
-3z"/>
<path d="M740 315 c0 -25 14 -33 25 -15 9 15 45 12 45 -4 0 -13 66 -46 94 -46
7 0 25 -9 39 -20 26 -21 47 -26 47 -11 0 7 -81 47 -134 65 -10 3 -16 12 -13
20 4 10 -8 17 -38 25 -61 15 -65 14 -65 -14z"/>
<path d="M926 321 c-11 -12 -16 -24 -12 -28 9 -9 39 22 34 37 -2 7 -10 4 -22
-9z"/>
<path d="M770 240 c-19 -4 -27 -8 -17 -9 10 0 32 -8 49 -17 16 -9 27 -11 24
-6 -4 6 4 18 16 26 l22 16 -29 -1 c-17 -1 -46 -5 -65 -9z"/>
<path d="M845 190 c3 -5 16 -10 28 -9 21 0 21 1 2 9 -28 12 -37 12 -30 0z"/>
<path d="M900 179 c0 -5 11 -9 25 -9 14 0 25 2 25 4 0 2 -11 6 -25 8 -14 3
-25 1 -25 -3z"/>
<path d="M1250 180 c8 -5 22 -9 30 -9 10 0 8 3 -5 9 -27 12 -43 12 -25 0z"/>
</g>
</svg>
